<?xml version="1.0" encoding="UTF-8" standalone="no"?>
<!DOCTYPE svg PUBLIC "-//W3C//DTD SVG 1.1//EN"
 "http://www.w3.org/Graphics/SVG/1.1/DTD/svg11.dtd">
<!-- Generated by graphviz version 13.1.0 (20250701.0955)
 -->
<!-- Title: interface/driver_mifare_ultralight_interface.h Pages: 1 -->
<svg width="380pt" height="188pt"
 viewBox="0.00 0.00 380.00 188.00" xmlns="http://www.w3.org/2000/svg" xmlns:xlink="http://www.w3.org/1999/xlink">
<g id="graph0" class="graph" transform="scale(1 1) rotate(0) translate(4 184)">
<title>interface/driver_mifare_ultralight_interface.h</title>
<!-- Node1 -->
<g id="Node000001" class="node">
<title>Node1</title>
<g id="a_Node000001"><a xlink:title="driver mifare_ultralight interface header file">
<polygon fill="#999999" stroke="#666666" points="242.38,-180 129.62,-180 129.62,-148 242.38,-148 242.38,-180"/>
<text xml:space="preserve" text-anchor="start" x="137.62" y="-166.5" font-family="Helvetica,sans-Serif" font-size="10.00">interface/driver_mifare</text>
<text xml:space="preserve" text-anchor="middle" x="186" y="-154.5" font-family="Helvetica,sans-Serif" font-size="10.00">_ultralight_interface.h</text>
</a>
</g>
</g>
<!-- Node2 -->
<g id="Node000002" class="node">
<title>Node2</title>
<g id="a_Node000002"><a xlink:href="driver__mifare__ultralight__basic_8h.html" target="_top" xlink:title="driver mifare_ultralight basic header file">
<polygon fill="white" stroke="#666666" points="112,-106 0,-106 0,-74 112,-74 112,-106"/>
<text xml:space="preserve" text-anchor="start" x="8" y="-92.5" font-family="Helvetica,sans-Serif" font-size="10.00">example/driver_mifare</text>
<text xml:space="preserve" text-anchor="middle" x="56" y="-80.5" font-family="Helvetica,sans-Serif" font-size="10.00">_ultralight_basic.h</text>
</a>
</g>
</g>
<!-- Node1&#45;&gt;Node2 -->
<g id="edge1_Node000001_Node000002" class="edge">
<title>Node1&#45;&gt;Node2</title>
<g id="a_edge1_Node000001_Node000002"><a xlink:title=" ">
<path fill="none" stroke="#63b8ff" d="M148.12,-142.02C127.56,-130.64 102.6,-116.81 83.84,-106.42"/>
<polygon fill="#63b8ff" stroke="#63b8ff" points="146.34,-145.04 156.79,-146.82 149.74,-138.91 146.34,-145.04"/>
</a>
</g>
</g>
<!-- Node4 -->
<g id="Node000004" class="node">
<title>Node4</title>
<g id="a_Node000004"><a xlink:href="driver__mifare__ultralight__interface__template_8c.html" target="_top" xlink:title="driver mifare_ultralight interface template source file">
<polygon fill="white" stroke="#666666" points="242.38,-112 129.62,-112 129.62,-68 242.38,-68 242.38,-112"/>
<text xml:space="preserve" text-anchor="start" x="137.62" y="-98.5" font-family="Helvetica,sans-Serif" font-size="10.00">interface/driver_mifare</text>
<text xml:space="preserve" text-anchor="start" x="137.62" y="-86.5" font-family="Helvetica,sans-Serif" font-size="10.00">_ultralight_interface</text>
<text xml:space="preserve" text-anchor="middle" x="186" y="-74.5" font-family="Helvetica,sans-Serif" font-size="10.00">_template.c</text>
</a>
</g>
</g>
<!-- Node1&#45;&gt;Node4 -->
<g id="edge3_Node000001_Node000004" class="edge">
<title>Node1&#45;&gt;Node4</title>
<g id="a_edge3_Node000001_Node000004"><a xlink:title=" ">
<path fill="none" stroke="#63b8ff" d="M186,-136.38C186,-128.43 186,-119.82 186,-112.26"/>
<polygon fill="#63b8ff" stroke="#63b8ff" points="182.5,-136.22 186,-146.22 189.5,-136.22 182.5,-136.22"/>
</a>
</g>
</g>
<!-- Node5 -->
<g id="Node000005" class="node">
<title>Node5</title>
<g id="a_Node000005"><a xlink:href="driver__mifare__ultralight__card__test_8h.html" target="_top" xlink:title="driver mifare_ultralight card test header file">
<polygon fill="white" stroke="#666666" points="372,-106 260,-106 260,-74 372,-74 372,-106"/>
<text xml:space="preserve" text-anchor="start" x="268" y="-92.5" font-family="Helvetica,sans-Serif" font-size="10.00">test/driver_mifare</text>
<text xml:space="preserve" text-anchor="middle" x="316" y="-80.5" font-family="Helvetica,sans-Serif" font-size="10.00">_ultralight_card_test.h</text>
</a>
</g>
</g>
<!-- Node1&#45;&gt;Node5 -->
<g id="edge4_Node000001_Node000005" class="edge">
<title>Node1&#45;&gt;Node5</title>
<g id="a_edge4_Node000001_Node000005"><a xlink:title=" ">
<path fill="none" stroke="#63b8ff" d="M223.88,-142.02C244.44,-130.64 269.4,-116.81 288.16,-106.42"/>
<polygon fill="#63b8ff" stroke="#63b8ff" points="222.26,-138.91 215.21,-146.82 225.66,-145.04 222.26,-138.91"/>
</a>
</g>
</g>
<!-- Node3 -->
<g id="Node000003" class="node">
<title>Node3</title>
<g id="a_Node000003"><a xlink:href="driver__mifare__ultralight__basic_8c.html" target="_top" xlink:title="driver mifare_ultralight basic source file">
<polygon fill="white" stroke="#666666" points="112,-32 0,-32 0,0 112,0 112,-32"/>
<text xml:space="preserve" text-anchor="start" x="8" y="-18.5" font-family="Helvetica,sans-Serif" font-size="10.00">example/driver_mifare</text>
<text xml:space="preserve" text-anchor="middle" x="56" y="-6.5" font-family="Helvetica,sans-Serif" font-size="10.00">_ultralight_basic.c</text>
</a>
</g>
</g>
<!-- Node2&#45;&gt;Node3 -->
<g id="edge2_Node000002_Node000003" class="edge">
<title>Node2&#45;&gt;Node3</title>
<g id="a_edge2_Node000002_Node000003"><a xlink:title=" ">
<path fill="none" stroke="#63b8ff" d="M56,-62.49C56,-52.3 56,-41.03 56,-32.25"/>
<polygon fill="#63b8ff" stroke="#63b8ff" points="52.5,-62.22 56,-72.22 59.5,-62.22 52.5,-62.22"/>
</a>
</g>
</g>
<!-- Node6 -->
<g id="Node000006" class="node">
<title>Node6</title>
<g id="a_Node000006"><a xlink:href="driver__mifare__ultralight__card__test_8c.html" target="_top" xlink:title="driver mifare_ultralight card test source file">
<polygon fill="white" stroke="#666666" points="372,-32 260,-32 260,0 372,0 372,-32"/>
<text xml:space="preserve" text-anchor="start" x="268" y="-18.5" font-family="Helvetica,sans-Serif" font-size="10.00">test/driver_mifare</text>
<text xml:space="preserve" text-anchor="middle" x="316" y="-6.5" font-family="Helvetica,sans-Serif" font-size="10.00">_ultralight_card_test.c</text>
</a>
</g>
</g>
<!-- Node5&#45;&gt;Node6 -->
<g id="edge5_Node000005_Node000006" class="edge">
<title>Node5&#45;&gt;Node6</title>
<g id="a_edge5_Node000005_Node000006"><a xlink:title=" ">
<path fill="none" stroke="#63b8ff" d="M316,-62.49C316,-52.3 316,-41.03 316,-32.25"/>
<polygon fill="#63b8ff" stroke="#63b8ff" points="312.5,-62.22 316,-72.22 319.5,-62.22 312.5,-62.22"/>
</a>
</g>
</g>
</g>
</svg>
