<?xml version="1.0" encoding="UTF-8" standalone="no"?>
<!DOCTYPE svg PUBLIC "-//W3C//DTD SVG 1.1//EN"
 "http://www.w3.org/Graphics/SVG/1.1/DTD/svg11.dtd">
<!-- Generated by graphviz version 13.1.0 (20250701.0955)
 -->
<!-- Title: mifare_ultralight_basic_search Pages: 1 -->
<svg width="317pt" height="368pt"
 viewBox="0.00 0.00 317.00 368.00" xmlns="http://www.w3.org/2000/svg" xmlns:xlink="http://www.w3.org/1999/xlink">
<g id="graph0" class="graph" transform="scale(1 1) rotate(0) translate(4 364)">
<title>mifare_ultralight_basic_search</title>
<!-- Node1 -->
<g id="Node000001" class="node">
<title>Node1</title>
<g id="a_Node000001"><a xlink:title="basic example search">
<polygon fill="#999999" stroke="#666666" points="113.5,-184 0,-184 0,-152 113.5,-152 113.5,-184"/>
<text xml:space="preserve" text-anchor="start" x="8" y="-170.5" font-family="Helvetica,sans-Serif" font-size="10.00">mifare_ultralight_basic</text>
<text xml:space="preserve" text-anchor="middle" x="56.75" y="-158.5" font-family="Helvetica,sans-Serif" font-size="10.00">_search</text>
</a>
</g>
</g>
<!-- Node2 -->
<g id="Node000002" class="node">
<title>Node2</title>
<g id="a_Node000002"><a xlink:href="group__mifare__ultralight__basic__driver.html#ga4e9956cee46395cdb068b153e9322133" target="_top" xlink:title="mifare_ultralight anti collision cl1">
<polygon fill="white" stroke="#666666" points="308.75,-360 149.5,-360 149.5,-340 308.75,-340 308.75,-360"/>
<text xml:space="preserve" text-anchor="middle" x="229.12" y="-346.5" font-family="Helvetica,sans-Serif" font-size="10.00">mifare_ultralight_anticollision_cl1</text>
</a>
</g>
</g>
<!-- Node1&#45;&gt;Node2 -->
<g id="edge1_Node000001_Node000002" class="edge">
<title>Node1&#45;&gt;Node2</title>
<g id="a_edge1_Node000001_Node000002"><a xlink:title=" ">
<path fill="none" stroke="#63b8ff" d="M62.14,-184.34C71.92,-217.45 98.74,-292.6 149.5,-331 151.08,-332.19 152.72,-333.31 154.42,-334.36"/>
<polygon fill="#63b8ff" stroke="#63b8ff" points="152.79,-337.46 163.28,-338.96 156.01,-331.25 152.79,-337.46"/>
</a>
</g>
</g>
<!-- Node3 -->
<g id="Node000003" class="node">
<title>Node3</title>
<g id="a_Node000003"><a xlink:href="group__mifare__ultralight__basic__driver.html#gaa53e1f3353fe444021dceaaf5068907d" target="_top" xlink:title="mifare_ultralight anti collision cl2">
<polygon fill="white" stroke="#666666" points="308.75,-322 149.5,-322 149.5,-302 308.75,-302 308.75,-322"/>
<text xml:space="preserve" text-anchor="middle" x="229.12" y="-308.5" font-family="Helvetica,sans-Serif" font-size="10.00">mifare_ultralight_anticollision_cl2</text>
</a>
</g>
</g>
<!-- Node1&#45;&gt;Node3 -->
<g id="edge2_Node000001_Node000003" class="edge">
<title>Node1&#45;&gt;Node3</title>
<g id="a_edge2_Node000001_Node000003"><a xlink:title=" ">
<path fill="none" stroke="#63b8ff" d="M65.02,-184.27C77.96,-211.26 107.6,-265.1 149.5,-293 151.59,-294.39 153.77,-295.68 156.02,-296.88"/>
<polygon fill="#63b8ff" stroke="#63b8ff" points="154.32,-299.95 164.87,-300.91 157.22,-293.58 154.32,-299.95"/>
</a>
</g>
</g>
<!-- Node4 -->
<g id="Node000004" class="node">
<title>Node4</title>
<g id="a_Node000004"><a xlink:href="group__mifare__ultralight__basic__driver.html#ga6c2b7e9b799592afb4746b9349c7b725" target="_top" xlink:title="get the storage">
<polygon fill="white" stroke="#666666" points="281,-284 177.25,-284 177.25,-252 281,-252 281,-284"/>
<text xml:space="preserve" text-anchor="start" x="185.25" y="-270.5" font-family="Helvetica,sans-Serif" font-size="10.00">mifare_ultralight_get</text>
<text xml:space="preserve" text-anchor="middle" x="229.12" y="-258.5" font-family="Helvetica,sans-Serif" font-size="10.00">_storage</text>
</a>
</g>
</g>
<!-- Node1&#45;&gt;Node4 -->
<g id="edge3_Node000001_Node000004" class="edge">
<title>Node1&#45;&gt;Node4</title>
<g id="a_edge3_Node000001_Node000004"><a xlink:title=" ">
<path fill="none" stroke="#63b8ff" d="M73.92,-184.49C91.24,-201.31 120.2,-227.12 149.5,-243 154.85,-245.9 160.59,-248.53 166.45,-250.89"/>
<polygon fill="#63b8ff" stroke="#63b8ff" points="165.04,-254.1 175.63,-254.33 167.5,-247.54 165.04,-254.1"/>
</a>
</g>
</g>
<!-- Node5 -->
<g id="Node000005" class="node">
<title>Node5</title>
<g id="a_Node000005"><a xlink:href="group__mifare__ultralight__basic__driver.html#gafeb8831419bcb559558f59e1e375e892" target="_top" xlink:title="mifare_ultralight get the version">
<polygon fill="white" stroke="#666666" points="281,-234 177.25,-234 177.25,-202 281,-202 281,-234"/>
<text xml:space="preserve" text-anchor="start" x="185.25" y="-220.5" font-family="Helvetica,sans-Serif" font-size="10.00">mifare_ultralight_get</text>
<text xml:space="preserve" text-anchor="middle" x="229.12" y="-208.5" font-family="Helvetica,sans-Serif" font-size="10.00">_version</text>
</a>
</g>
</g>
<!-- Node1&#45;&gt;Node5 -->
<g id="edge4_Node000001_Node000005" class="edge">
<title>Node1&#45;&gt;Node5</title>
<g id="a_edge4_Node000001_Node000005"><a xlink:title=" ">
<path fill="none" stroke="#63b8ff" d="M113.54,-184.37C130.26,-189.28 148.7,-194.69 165.81,-199.71"/>
<polygon fill="#63b8ff" stroke="#63b8ff" points="164.79,-203.06 175.37,-202.52 166.76,-196.34 164.79,-203.06"/>
</a>
</g>
</g>
<!-- Node6 -->
<g id="Node000006" class="node">
<title>Node6</title>
<g id="a_Node000006"><a xlink:href="group__mifare__ultralight__interface__driver.html#ga27a614c58fa287914b3e89a49a204f8b" target="_top" xlink:title="interface delay ms">
<polygon fill="white" stroke="#666666" points="293,-184 165.25,-184 165.25,-152 293,-152 293,-184"/>
<text xml:space="preserve" text-anchor="start" x="173.25" y="-170.5" font-family="Helvetica,sans-Serif" font-size="10.00">mifare_ultralight_interface</text>
<text xml:space="preserve" text-anchor="middle" x="229.12" y="-158.5" font-family="Helvetica,sans-Serif" font-size="10.00">_delay_ms</text>
</a>
</g>
</g>
<!-- Node1&#45;&gt;Node6 -->
<g id="edge5_Node000001_Node000006" class="edge">
<title>Node1&#45;&gt;Node6</title>
<g id="a_edge5_Node000001_Node000006"><a xlink:title=" ">
<path fill="none" stroke="#63b8ff" d="M113.54,-168C126.35,-168 140.18,-168 153.64,-168"/>
<polygon fill="#63b8ff" stroke="#63b8ff" points="153.32,-171.5 163.32,-168 153.32,-164.5 153.32,-171.5"/>
</a>
</g>
</g>
<!-- Node7 -->
<g id="Node000007" class="node">
<title>Node7</title>
<g id="a_Node000007"><a xlink:href="group__mifare__ultralight__basic__driver.html#ga99a59c170b04fb502ff7f673d271b7da" target="_top" xlink:title="mifare_ultralight read page">
<polygon fill="white" stroke="#666666" points="296.75,-134 161.5,-134 161.5,-114 296.75,-114 296.75,-134"/>
<text xml:space="preserve" text-anchor="middle" x="229.12" y="-120.5" font-family="Helvetica,sans-Serif" font-size="10.00">mifare_ultralight_read_page</text>
</a>
</g>
</g>
<!-- Node1&#45;&gt;Node7 -->
<g id="edge6_Node000001_Node000007" class="edge">
<title>Node1&#45;&gt;Node7</title>
<g id="a_edge6_Node000001_Node000007"><a xlink:title=" ">
<path fill="none" stroke="#63b8ff" d="M113.97,-152.41C125.69,-149.23 137.99,-145.96 149.5,-143 157.08,-141.05 165.09,-139.05 172.97,-137.11"/>
<polygon fill="#63b8ff" stroke="#63b8ff" points="173.63,-140.56 182.52,-134.79 171.98,-133.75 173.63,-140.56"/>
</a>
</g>
</g>
<!-- Node8 -->
<g id="Node000008" class="node">
<title>Node8</title>
<g id="a_Node000008"><a xlink:href="group__mifare__ultralight__basic__driver.html#ga7df446aef1f45fd2531d0e36b6d03ca7" target="_top" xlink:title="mifare_ultralight request">
<polygon fill="white" stroke="#666666" points="290.38,-96 167.88,-96 167.88,-76 290.38,-76 290.38,-96"/>
<text xml:space="preserve" text-anchor="middle" x="229.12" y="-82.5" font-family="Helvetica,sans-Serif" font-size="10.00">mifare_ultralight_request</text>
</a>
</g>
</g>
<!-- Node1&#45;&gt;Node8 -->
<g id="edge7_Node000001_Node000008" class="edge">
<title>Node1&#45;&gt;Node8</title>
<g id="a_edge7_Node000001_Node000008"><a xlink:title=" ">
<path fill="none" stroke="#63b8ff" d="M76.9,-151.74C94.64,-137.45 122.32,-117.12 149.5,-105 153.76,-103.1 158.23,-101.38 162.8,-99.81"/>
<polygon fill="#63b8ff" stroke="#63b8ff" points="163.61,-103.23 172.1,-96.9 161.51,-96.55 163.61,-103.23"/>
</a>
</g>
</g>
<!-- Node9 -->
<g id="Node000009" class="node">
<title>Node9</title>
<g id="a_Node000009"><a xlink:href="group__mifare__ultralight__basic__driver.html#ga2a0c86addf3a1bdc5a2618108887c6e0" target="_top" xlink:title="mifare_ultralight select cl1">
<polygon fill="white" stroke="#666666" points="296.38,-58 161.88,-58 161.88,-38 296.38,-38 296.38,-58"/>
<text xml:space="preserve" text-anchor="middle" x="229.12" y="-44.5" font-family="Helvetica,sans-Serif" font-size="10.00">mifare_ultralight_select_cl1</text>
</a>
</g>
</g>
<!-- Node1&#45;&gt;Node9 -->
<g id="edge8_Node000001_Node000009" class="edge">
<title>Node1&#45;&gt;Node9</title>
<g id="a_edge8_Node000001_Node000009"><a xlink:title=" ">
<path fill="none" stroke="#63b8ff" d="M68.01,-151.57C83.04,-128.94 113.23,-88.51 149.5,-67 152.13,-65.44 154.88,-64.01 157.71,-62.7"/>
<polygon fill="#63b8ff" stroke="#63b8ff" points="158.88,-66 166.84,-59.01 156.25,-59.51 158.88,-66"/>
</a>
</g>
</g>
<!-- Node10 -->
<g id="Node000010" class="node">
<title>Node10</title>
<g id="a_Node000010"><a xlink:href="group__mifare__ultralight__basic__driver.html#gabb0e4d5b3d403eb3ab94ebc4d09eb2bc" target="_top" xlink:title="mifare_ultralight select cl2">
<polygon fill="white" stroke="#666666" points="296.38,-20 161.88,-20 161.88,0 296.38,0 296.38,-20"/>
<text xml:space="preserve" text-anchor="middle" x="229.12" y="-6.5" font-family="Helvetica,sans-Serif" font-size="10.00">mifare_ultralight_select_cl2</text>
</a>
</g>
</g>
<!-- Node1&#45;&gt;Node10 -->
<g id="edge9_Node000001_Node000010" class="edge">
<title>Node1&#45;&gt;Node10</title>
<g id="a_edge9_Node000001_Node000010"><a xlink:title=" ">
<path fill="none" stroke="#63b8ff" d="M63.75,-151.81C75.48,-122.49 104.3,-60.74 149.5,-29 151.43,-27.64 153.45,-26.38 155.53,-25.21"/>
<polygon fill="#63b8ff" stroke="#63b8ff" points="156.79,-28.49 164.31,-21.02 153.78,-22.17 156.79,-28.49"/>
</a>
</g>
</g>
</g>
</svg>
