<?xml version="1.0" encoding="UTF-8" standalone="no"?>
<!DOCTYPE svg PUBLIC "-//W3C//DTD SVG 1.1//EN"
 "http://www.w3.org/Graphics/SVG/1.1/DTD/svg11.dtd">
<!-- Generated by graphviz version 13.1.0 (20250701.0955)
 -->
<!-- Title: mifare_ultralight_basic_init Pages: 1 -->
<svg width="303pt" height="278pt"
 viewBox="0.00 0.00 303.00 278.00" xmlns="http://www.w3.org/2000/svg" xmlns:xlink="http://www.w3.org/1999/xlink">
<g id="graph0" class="graph" transform="scale(1 1) rotate(0) translate(4 274)">
<title>mifare_ultralight_basic_init</title>
<!-- Node1 -->
<g id="Node000001" class="node">
<title>Node1</title>
<g id="a_Node000001"><a xlink:title="basic example init">
<polygon fill="#999999" stroke="#666666" points="131.5,-151 0,-151 0,-131 131.5,-131 131.5,-151"/>
<text xml:space="preserve" text-anchor="middle" x="65.75" y="-137.5" font-family="Helvetica,sans-Serif" font-size="10.00">mifare_ultralight_basic_init</text>
</a>
</g>
</g>
<!-- Node2 -->
<g id="Node000002" class="node">
<title>Node2</title>
<g id="a_Node000002"><a xlink:href="group__mifare__ultralight__basic__driver.html#ga5573f25ef0395c0042009af9b0d1c361" target="_top" xlink:title="initialize the chip">
<polygon fill="white" stroke="#666666" points="282.88,-270 179.88,-270 179.88,-250 282.88,-250 282.88,-270"/>
<text xml:space="preserve" text-anchor="middle" x="231.38" y="-256.5" font-family="Helvetica,sans-Serif" font-size="10.00">mifare_ultralight_init</text>
</a>
</g>
</g>
<!-- Node1&#45;&gt;Node2 -->
<g id="edge1_Node000001_Node000002" class="edge">
<title>Node1&#45;&gt;Node2</title>
<g id="a_edge1_Node000001_Node000002"><a xlink:title=" ">
<path fill="none" stroke="#63b8ff" d="M74.39,-151.45C89.75,-171.71 126.43,-216.52 167.5,-241 170.07,-242.53 172.78,-243.95 175.57,-245.27"/>
<polygon fill="#63b8ff" stroke="#63b8ff" points="173.94,-248.38 184.52,-248.98 176.62,-241.91 173.94,-248.38"/>
</a>
</g>
</g>
<!-- Node3 -->
<g id="Node000003" class="node">
<title>Node3</title>
<g id="a_Node000003"><a xlink:href="group__mifare__ultralight__interface__driver.html#gab7328d057095b9bafa11e18e3aa6ef76" target="_top" xlink:title="interface contactless deinit">
<polygon fill="white" stroke="#666666" points="295.25,-232 167.5,-232 167.5,-200 295.25,-200 295.25,-232"/>
<text xml:space="preserve" text-anchor="start" x="175.5" y="-218.5" font-family="Helvetica,sans-Serif" font-size="10.00">mifare_ultralight_interface</text>
<text xml:space="preserve" text-anchor="middle" x="231.38" y="-206.5" font-family="Helvetica,sans-Serif" font-size="10.00">_contactless_deinit</text>
</a>
</g>
</g>
<!-- Node1&#45;&gt;Node3 -->
<g id="edge2_Node000001_Node000003" class="edge">
<title>Node1&#45;&gt;Node3</title>
<g id="a_edge2_Node000001_Node000003"><a xlink:title=" ">
<path fill="none" stroke="#63b8ff" d="M86.59,-151.45C106.74,-161.92 138.97,-178.27 167.5,-191 170.62,-192.39 173.84,-193.79 177.1,-195.17"/>
<polygon fill="#63b8ff" stroke="#63b8ff" points="175.59,-198.33 186.16,-198.94 178.28,-191.87 175.59,-198.33"/>
</a>
</g>
</g>
<!-- Node4 -->
<g id="Node000004" class="node">
<title>Node4</title>
<g id="a_Node000004"><a xlink:href="group__mifare__ultralight__interface__driver.html#ga7fe5dcac38edafc694350d88aabac458" target="_top" xlink:title="interface contactless init">
<polygon fill="white" stroke="#666666" points="295.25,-182 167.5,-182 167.5,-150 295.25,-150 295.25,-182"/>
<text xml:space="preserve" text-anchor="start" x="175.5" y="-168.5" font-family="Helvetica,sans-Serif" font-size="10.00">mifare_ultralight_interface</text>
<text xml:space="preserve" text-anchor="middle" x="231.38" y="-156.5" font-family="Helvetica,sans-Serif" font-size="10.00">_contactless_init</text>
</a>
</g>
</g>
<!-- Node1&#45;&gt;Node4 -->
<g id="edge3_Node000001_Node000004" class="edge">
<title>Node1&#45;&gt;Node4</title>
<g id="a_edge3_Node000001_Node000004"><a xlink:title=" ">
<path fill="none" stroke="#63b8ff" d="M131.89,-150.95C139.76,-152.16 147.85,-153.39 155.85,-154.61"/>
<polygon fill="#63b8ff" stroke="#63b8ff" points="155.15,-158.05 165.56,-156.1 156.21,-151.13 155.15,-158.05"/>
</a>
</g>
</g>
<!-- Node5 -->
<g id="Node000005" class="node">
<title>Node5</title>
<g id="a_Node000005"><a xlink:href="group__mifare__ultralight__interface__driver.html#gacc33ce2085a5c38796ce1824c484166f" target="_top" xlink:title="interface contactless transceiver">
<polygon fill="white" stroke="#666666" points="295.25,-132 167.5,-132 167.5,-100 295.25,-100 295.25,-132"/>
<text xml:space="preserve" text-anchor="start" x="175.5" y="-118.5" font-family="Helvetica,sans-Serif" font-size="10.00">mifare_ultralight_interface</text>
<text xml:space="preserve" text-anchor="middle" x="231.38" y="-106.5" font-family="Helvetica,sans-Serif" font-size="10.00">_contactless_transceiver</text>
</a>
</g>
</g>
<!-- Node1&#45;&gt;Node5 -->
<g id="edge4_Node000001_Node000005" class="edge">
<title>Node1&#45;&gt;Node5</title>
<g id="a_edge4_Node000001_Node000005"><a xlink:title=" ">
<path fill="none" stroke="#63b8ff" d="M131.89,-131.05C139.76,-129.84 147.85,-128.61 155.85,-127.39"/>
<polygon fill="#63b8ff" stroke="#63b8ff" points="156.21,-130.87 165.56,-125.9 155.15,-123.95 156.21,-130.87"/>
</a>
</g>
</g>
<!-- Node6 -->
<g id="Node000006" class="node">
<title>Node6</title>
<g id="a_Node000006"><a xlink:href="group__mifare__ultralight__interface__driver.html#ga20d6c3290edc0c0220835bb4b960d24b" target="_top" xlink:title="interface print format data">
<polygon fill="white" stroke="#666666" points="295.25,-82 167.5,-82 167.5,-50 295.25,-50 295.25,-82"/>
<text xml:space="preserve" text-anchor="start" x="175.5" y="-68.5" font-family="Helvetica,sans-Serif" font-size="10.00">mifare_ultralight_interface</text>
<text xml:space="preserve" text-anchor="middle" x="231.38" y="-56.5" font-family="Helvetica,sans-Serif" font-size="10.00">_debug_print</text>
</a>
</g>
</g>
<!-- Node1&#45;&gt;Node6 -->
<g id="edge5_Node000001_Node000006" class="edge">
<title>Node1&#45;&gt;Node6</title>
<g id="a_edge5_Node000001_Node000006"><a xlink:title=" ">
<path fill="none" stroke="#63b8ff" d="M86.59,-130.55C106.74,-120.08 138.97,-103.73 167.5,-91 170.62,-89.61 173.84,-88.21 177.1,-86.83"/>
<polygon fill="#63b8ff" stroke="#63b8ff" points="178.28,-90.13 186.16,-83.06 175.59,-83.67 178.28,-90.13"/>
</a>
</g>
</g>
<!-- Node7 -->
<g id="Node000007" class="node">
<title>Node7</title>
<g id="a_Node000007"><a xlink:href="group__mifare__ultralight__interface__driver.html#ga27a614c58fa287914b3e89a49a204f8b" target="_top" xlink:title="interface delay ms">
<polygon fill="white" stroke="#666666" points="295.25,-32 167.5,-32 167.5,0 295.25,0 295.25,-32"/>
<text xml:space="preserve" text-anchor="start" x="175.5" y="-18.5" font-family="Helvetica,sans-Serif" font-size="10.00">mifare_ultralight_interface</text>
<text xml:space="preserve" text-anchor="middle" x="231.38" y="-6.5" font-family="Helvetica,sans-Serif" font-size="10.00">_delay_ms</text>
</a>
</g>
</g>
<!-- Node1&#45;&gt;Node7 -->
<g id="edge6_Node000001_Node000007" class="edge">
<title>Node1&#45;&gt;Node7</title>
<g id="a_edge6_Node000001_Node000007"><a xlink:title=" ">
<path fill="none" stroke="#63b8ff" d="M74.82,-130.55C90.66,-110.67 127.72,-67.07 167.5,-41 169.31,-39.82 171.18,-38.67 173.09,-37.57"/>
<polygon fill="#63b8ff" stroke="#63b8ff" points="174.39,-40.85 181.63,-33.12 171.15,-34.64 174.39,-40.85"/>
</a>
</g>
</g>
</g>
</svg>
