<?xml version="1.0" encoding="UTF-8" standalone="no"?>
<!DOCTYPE svg PUBLIC "-//W3C//DTD SVG 1.1//EN"
 "http://www.w3.org/Graphics/SVG/1.1/DTD/svg11.dtd">
<!-- Generated by graphviz version 13.1.0 (20250701.0955)
 -->
<!-- Title: mifare_ultralight_basic_set_password_pack Pages: 1 -->
<svg width="288pt" height="78pt"
 viewBox="0.00 0.00 288.00 78.00" xmlns="http://www.w3.org/2000/svg" xmlns:xlink="http://www.w3.org/1999/xlink">
<g id="graph0" class="graph" transform="scale(1 1) rotate(0) translate(4 74)">
<title>mifare_ultralight_basic_set_password_pack</title>
<!-- Node1 -->
<g id="Node000001" class="node">
<title>Node1</title>
<g id="a_Node000001"><a xlink:title="basic example set password and pack">
<polygon fill="#999999" stroke="#666666" points="113.5,-54 0,-54 0,-22 113.5,-22 113.5,-54"/>
<text xml:space="preserve" text-anchor="start" x="8" y="-40.5" font-family="Helvetica,sans-Serif" font-size="10.00">mifare_ultralight_basic</text>
<text xml:space="preserve" text-anchor="middle" x="56.75" y="-28.5" font-family="Helvetica,sans-Serif" font-size="10.00">_set_password_pack</text>
</a>
</g>
</g>
<!-- Node2 -->
<g id="Node000002" class="node">
<title>Node2</title>
<g id="a_Node000002"><a xlink:href="group__mifare__ultralight__basic__driver.html#ga00059c0dd0f9e2ae63dad3b56d250f2c" target="_top" xlink:title="mifare_ultralight set the pack">
<polygon fill="white" stroke="#666666" points="279.5,-70 149.5,-70 149.5,-50 279.5,-50 279.5,-70"/>
<text xml:space="preserve" text-anchor="middle" x="214.5" y="-56.5" font-family="Helvetica,sans-Serif" font-size="10.00">mifare_ultralight_set_pack</text>
</a>
</g>
</g>
<!-- Node1&#45;&gt;Node2 -->
<g id="edge1_Node000001_Node000002" class="edge">
<title>Node1&#45;&gt;Node2</title>
<g id="a_edge1_Node000001_Node000002"><a xlink:title=" ">
<path fill="none" stroke="#63b8ff" d="M113.98,-45.94C121.74,-47.04 129.81,-48.18 137.85,-49.31"/>
<polygon fill="#63b8ff" stroke="#63b8ff" points="137.26,-52.77 147.65,-50.7 138.24,-45.83 137.26,-52.77"/>
</a>
</g>
</g>
<!-- Node3 -->
<g id="Node000003" class="node">
<title>Node3</title>
<g id="a_Node000003"><a xlink:href="group__mifare__ultralight__basic__driver.html#ga502a93a0f4e6a7ebd5165cdd1d7be041" target="_top" xlink:title="mifare_ultralight set the password">
<polygon fill="white" stroke="#666666" points="266.38,-32 162.62,-32 162.62,0 266.38,0 266.38,-32"/>
<text xml:space="preserve" text-anchor="start" x="170.62" y="-18.5" font-family="Helvetica,sans-Serif" font-size="10.00">mifare_ultralight_set</text>
<text xml:space="preserve" text-anchor="middle" x="214.5" y="-6.5" font-family="Helvetica,sans-Serif" font-size="10.00">_password</text>
</a>
</g>
</g>
<!-- Node1&#45;&gt;Node3 -->
<g id="edge2_Node000001_Node000003" class="edge">
<title>Node1&#45;&gt;Node3</title>
<g id="a_edge2_Node000001_Node000003"><a xlink:title=" ">
<path fill="none" stroke="#63b8ff" d="M113.98,-30.06C126.05,-28.35 138.88,-26.54 151.17,-24.8"/>
<polygon fill="#63b8ff" stroke="#63b8ff" points="151.36,-28.31 160.77,-23.45 150.38,-21.38 151.36,-28.31"/>
</a>
</g>
</g>
</g>
</svg>
