<?xml version="1.0" encoding="UTF-8" standalone="no"?>
<!DOCTYPE svg PUBLIC "-//W3C//DTD SVG 1.1//EN"
 "http://www.w3.org/Graphics/SVG/1.1/DTD/svg11.dtd">
<!-- Generated by graphviz version 13.1.0 (20250701.0955)
 -->
<!-- Title: mifare ultralight driver function Pages: 1 -->
<svg width="277pt" height="290pt"
 viewBox="0.00 0.00 277.00 290.00" xmlns="http://www.w3.org/2000/svg" xmlns:xlink="http://www.w3.org/1999/xlink">
<g id="graph0" class="graph" transform="scale(1 1) rotate(0) translate(4 286)">
<title>mifare ultralight driver function</title>
<!-- Node3 -->
<g id="Node000003" class="node">
<title>Node3</title>
<g id="a_Node000003"><a xlink:href="group__mifare__ultralight__basic__driver.html" target="_top" xlink:title="mifare ultralight basic driver modules">
<polygon fill="white" stroke="#666666" points="261.88,-282 152.88,-282 152.88,-250 261.88,-250 261.88,-282"/>
<text xml:space="preserve" text-anchor="start" x="160.88" y="-268.5" font-family="Helvetica,sans-Serif" font-size="10.00">mifare ultralight basic</text>
<text xml:space="preserve" text-anchor="middle" x="207.38" y="-256.5" font-family="Helvetica,sans-Serif" font-size="10.00"> driver function</text>
</a>
</g>
</g>
<!-- Node1 -->
<g id="Node000001" class="node">
<title>Node1</title>
<g id="a_Node000001"><a xlink:title="mifare ultralight driver modules">
<polygon fill="#999999" stroke="#666666" points="109.75,-157 0,-157 0,-125 109.75,-125 109.75,-157"/>
<text xml:space="preserve" text-anchor="start" x="8" y="-143.5" font-family="Helvetica,sans-Serif" font-size="10.00">mifare ultralight driver</text>
<text xml:space="preserve" text-anchor="middle" x="54.88" y="-131.5" font-family="Helvetica,sans-Serif" font-size="10.00"> function</text>
</a>
</g>
</g>
<!-- Node1&#45;&gt;Node3 -->
<g id="edge2" class="edge">
<title>Node1&#45;&gt;Node3</title>
<path fill="none" stroke="black" d="M73.55,-166.4C90.06,-188.57 116.52,-220.36 145.75,-241 150.21,-244.15 155.14,-247 160.19,-249.55"/>
<polygon fill="black" stroke="black" points="76.49,-164.5 67.78,-158.47 70.83,-168.62 76.49,-164.5"/>
</g>
<!-- Node6 -->
<g id="Node000006" class="node">
<title>Node6</title>
<g id="a_Node000006"><a xlink:href="group__mifare__ultralight__example__driver.html" target="_top" xlink:title="mifare ultralight example driver modules">
<polygon fill="white" stroke="#666666" points="268.62,-232 146.12,-232 146.12,-200 268.62,-200 268.62,-232"/>
<text xml:space="preserve" text-anchor="start" x="154.12" y="-218.5" font-family="Helvetica,sans-Serif" font-size="10.00">mifare ultralight example</text>
<text xml:space="preserve" text-anchor="middle" x="207.38" y="-206.5" font-family="Helvetica,sans-Serif" font-size="10.00"> driver function</text>
</a>
</g>
</g>
<!-- Node1&#45;&gt;Node6 -->
<g id="edge5" class="edge">
<title>Node1&#45;&gt;Node6</title>
<path fill="none" stroke="black" d="M92.91,-162.88C108.93,-172.01 128.04,-182.46 145.75,-191 151.8,-193.92 158.28,-196.82 164.67,-199.56"/>
<polygon fill="black" stroke="black" points="95.09,-160.1 84.68,-158.15 91.6,-166.17 95.09,-160.1"/>
</g>
<!-- Node4 -->
<g id="Node000004" class="node">
<title>Node4</title>
<g id="a_Node000004"><a xlink:href="group__mifare__ultralight__extern__driver.html" target="_top" xlink:title="mifare ultralight extern driver modules">
<polygon fill="white" stroke="#666666" points="263.75,-182 151,-182 151,-150 263.75,-150 263.75,-182"/>
<text xml:space="preserve" text-anchor="start" x="159" y="-168.5" font-family="Helvetica,sans-Serif" font-size="10.00">mifare ultralight extern</text>
<text xml:space="preserve" text-anchor="middle" x="207.38" y="-156.5" font-family="Helvetica,sans-Serif" font-size="10.00"> driver function</text>
</a>
</g>
</g>
<!-- Node1&#45;&gt;Node4 -->
<g id="edge3" class="edge">
<title>Node1&#45;&gt;Node4</title>
<path fill="none" stroke="black" d="M121.47,-151.9C131.18,-153.51 141.11,-155.16 150.6,-156.74"/>
<polygon fill="black" stroke="black" points="122.14,-148.46 111.7,-150.27 120.99,-155.37 122.14,-148.46"/>
</g>
<!-- Node5 -->
<g id="Node000005" class="node">
<title>Node5</title>
<g id="a_Node000005"><a xlink:href="group__mifare__ultralight__interface__driver.html" target="_top" xlink:title="mifare ultralight interface driver modules">
<polygon fill="white" stroke="#666666" points="269,-132 145.75,-132 145.75,-100 269,-100 269,-132"/>
<text xml:space="preserve" text-anchor="start" x="153.75" y="-118.5" font-family="Helvetica,sans-Serif" font-size="10.00">mifare ultralight interface</text>
<text xml:space="preserve" text-anchor="middle" x="207.38" y="-106.5" font-family="Helvetica,sans-Serif" font-size="10.00"> driver function</text>
</a>
</g>
</g>
<!-- Node1&#45;&gt;Node5 -->
<g id="edge4" class="edge">
<title>Node1&#45;&gt;Node5</title>
<path fill="none" stroke="black" d="M121.39,-130.12C129.4,-128.79 137.55,-127.43 145.49,-126.11"/>
<polygon fill="black" stroke="black" points="120.99,-126.63 111.7,-131.73 122.14,-133.54 120.99,-126.63"/>
</g>
<!-- Node2 -->
<g id="Node000002" class="node">
<title>Node2</title>
<g id="a_Node000002"><a xlink:href="group__mifare__ultralight__link__driver.html" target="_top" xlink:title="mifare ultralight link driver modules">
<polygon fill="white" stroke="#666666" points="257.75,-82 157,-82 157,-50 257.75,-50 257.75,-82"/>
<text xml:space="preserve" text-anchor="start" x="165" y="-68.5" font-family="Helvetica,sans-Serif" font-size="10.00">mifare ultralight link</text>
<text xml:space="preserve" text-anchor="middle" x="207.38" y="-56.5" font-family="Helvetica,sans-Serif" font-size="10.00"> driver function</text>
</a>
</g>
</g>
<!-- Node1&#45;&gt;Node2 -->
<g id="edge1" class="edge">
<title>Node1&#45;&gt;Node2</title>
<path fill="none" stroke="black" d="M92.91,-119.12C108.93,-109.99 128.04,-99.54 145.75,-91 151.8,-88.08 158.28,-85.18 164.67,-82.44"/>
<polygon fill="black" stroke="black" points="91.6,-115.83 84.68,-123.85 95.09,-121.9 91.6,-115.83"/>
</g>
<!-- Node7 -->
<g id="Node000007" class="node">
<title>Node7</title>
<g id="a_Node000007"><a xlink:href="group__mifare__ultralight__test__driver.html" target="_top" xlink:title="mifare ultralight test driver modules">
<polygon fill="white" stroke="#666666" points="258.5,-32 156.25,-32 156.25,0 258.5,0 258.5,-32"/>
<text xml:space="preserve" text-anchor="start" x="164.25" y="-18.5" font-family="Helvetica,sans-Serif" font-size="10.00">mifare ultralight test</text>
<text xml:space="preserve" text-anchor="middle" x="207.38" y="-6.5" font-family="Helvetica,sans-Serif" font-size="10.00"> driver function</text>
</a>
</g>
</g>
<!-- Node1&#45;&gt;Node7 -->
<g id="edge6" class="edge">
<title>Node1&#45;&gt;Node7</title>
<path fill="none" stroke="black" d="M73.55,-115.6C90.06,-93.43 116.52,-61.64 145.75,-41 150.21,-37.85 155.14,-35 160.19,-32.45"/>
<polygon fill="black" stroke="black" points="70.83,-113.38 67.78,-123.53 76.49,-117.5 70.83,-113.38"/>
</g>
</g>
</svg>
